<svg xmlns="http://www.w3.org/2000/svg" width="48" height="48" viewBox="0 0 48 48">
  <defs/>
  <rect fill="#ffffff" width="48" height="48" rx="8"/>
  <path fill="#EA4335" d="M24 12c3.9 0 6.7 1.7 8.5 3.1l6.3-6.3C34.9 5.1 29.9 3 24 3 14.8 3 6.9 8.8 3.5 17.3l7.4 5.7C12.9 17.7 17.9 12 24 12z"/>
  <path fill="#34A853" d="M46.5 24.5c0-1.6-.1-3.1-.4-4.5H24v8.5h12.7c-.6 3.3-2.3 6-5 7.8l7.7 6C43.9 37.5 46.5 31.3 46.5 24.5z"/>
  <path fill="#FBBC05" d="M10.9 29.3A14.5 14.5 0 0 1 9.6 24c0-1.6.3-3.1.9-4.5L3.1 13.8A23 23 0 0 0 0 24c0 3.6.9 7 2.6 10.1l8.3-4.8z"/>
  <path fill="#4285F4" d="M24 46.5c6.5 0 12-2.1 16-5.7l-7.7-6c-2.1 1.4-4.7 2.3-8.3 2.3-6.1 0-11.3-4.7-12.5-11.1l-8.3 4.8C6.9 39.2 14.8 46.5 24 46.5z"/>
</svg>
